# xmcd
#
# Track frame offsets:
#	150
#	10830
#	19415
#	30680
#	45185
#	58247
#	73020
#	79856
#	87339
#	98003
#	109575
#	119313
#	130910
#	141349
#	151951
#	161716
#	173153
#	183881
#	196214
#	205530
#	215077
#	225193
#	236349
#	248032
#	259910
#	269199
#	277001
#	285813
#	297955
#	308977
#	321510
#	332324
#	344493
#
# Disc length: 4682 seconds
#
# Revision: 0
# Processed by: cddbd v1.5.2PL0 Copyright (c) Steve Scherf et al.
# Submitted via: audiograbber 1.83.01
#
DISCID=dd124821
DTITLE=Various Artist - Treasury Of Doo Wops Vol 2
DYEAR=1900
DGENRE=
TTITLE0=Patty And The Emblems - Ordinary Guy
TTITLE1=Arthur Lee Maye - I'll Have Memories Of You
TTITLE2=Knickerbockers - All I Need Is You
TTITLE3=Fabulous Dudes - Davilee
TTITLE4=Fabulous Dudes - Ding Dong Darling
TTITLE5=Fabulous Dudes - Bettie Blue Moon
TTITLE6=5 Shits - Stormy Weather
TTITLE7=5 Shits - Let Me Tell You
TTITLE8=Shades Of Blue - The Night
TTITLE9=Singing Wanderers - The Wrong Party Again
TTITLE10=Gales - Around The Clock
TTITLE11=Veneers - Believe Me (My Angel)
TTITLE12=Beverly Noble - You Cheated
TTITLE13=Pearl and Ronnie Lisa And Lila - My Steady
TTITLE14=Kittens - Count Every Star
TTITLE15=Crystals - Dont You Go
TTITLE16=Crystals - My Dear
TTITLE17=Crystals - My Love
TTITLE18=Crystals - Have Faith In Me
TTITLE19=Quotations - Imagination
TTITLE20=Quotations - Time Was
TTITLE21=Quotations - Sunday Kind Of Love
TTITLE22=Quotations - We'll Reach Heaven Together
TTITLE23=Crescendos - Julie Anna
TTITLE24=Crescendos - Katie Doll
TTITLE25=Crescendos - Without Your Love
TTITLE26=Crescendos - Strange Love
TTITLE27=Crescendos - Angel Face
TTITLE28=Crescendos - I'm So Ashamed
TTITLE29=Velons - Daring How Long
TTITLE30=Cotillions - One Of These Days
TTITLE31=Dream Weavers - Its Almost Tomorrow
TTITLE32=Quotations - September In The Rain
EXTD=
EXTT0=
EXTT1=
EXTT2=
EXTT3=
EXTT4=
EXTT5=
EXTT6=
EXTT7=
EXTT8=
EXTT9=
EXTT10=
EXTT11=
EXTT12=
EXTT13=
EXTT14=
EXTT15=
EXTT16=
EXTT17=
EXTT18=
EXTT19=
EXTT20=
EXTT21=
EXTT22=
EXTT23=
EXTT24=
EXTT25=
EXTT26=
EXTT27=
EXTT28=
EXTT29=
EXTT30=
EXTT31=
EXTT32=
PLAYORDER=
